<?xml version="1.0" encoding="utf-8"?>
<!-- Generator: Adobe Illustrator 24.0.0, SVG Export Plug-In . SVG Version: 6.00 Build 0)  -->
<svg version="1.1" id="co_x5F_multimedia" xmlns="http://www.w3.org/2000/svg" xmlns:xlink="http://www.w3.org/1999/xlink" x="0px"
	 y="0px" viewBox="0 0 40 40" style="enable-background:new 0 0 40 40;" xml:space="preserve">
<style type="text/css">
	.st0{fill-rule:evenodd;clip-rule:evenodd;}
</style>
<path class="st0" d="M18,2.8c8.4,0,15.2,6.8,15.2,15.2c0,3-0.9,5.9-2.4,8.2l5.8,5.8c1.2,1.2,1.2,3.1,0,4.2l-0.2,0.2
	c-1.2,1.2-3.1,1.2-4.2,0l-5.8-5.8c-2.4,1.6-5.2,2.5-8.3,2.5C9.6,33.1,2.8,26.3,2.8,18C2.8,9.6,9.6,2.8,18,2.8L18,2.8z M18,8
	c-5.5,0-9.9,4.4-9.9,9.9s4.4,9.9,9.9,9.9c5.5,0,9.9-4.4,9.9-9.9S23.5,8,18,8z"/>
</svg>
