<?xml version="1.0" encoding="iso-8859-1"?>
<!-- Generator: Adobe Illustrator 16.0.2, SVG Export Plug-In . SVG Version: 6.00 Build 0)  -->
<!DOCTYPE svg PUBLIC "-//W3C//DTD SVG 1.1//EN" "http://www.w3.org/Graphics/SVG/1.1/DTD/svg11.dtd">
<svg version="1.1" id="co_x5F_layout_x5F_2_x5C_2" xmlns="http://www.w3.org/2000/svg" xmlns:xlink="http://www.w3.org/1999/xlink"
	 x="0px" y="0px" width="40px" height="40px" viewBox="0 0 40 40" style="enable-background:new 0 0 40 40;" xml:space="preserve">
<path style="fill-rule:evenodd;clip-rule:evenodd;" d="M36.977,4.176v5.611c0,1.211-0.987,2.2-2.199,2.2H5.185
	c-1.212,0-2.2-0.989-2.2-2.201v-5.61c0-1.212,0.988-2.2,2.2-2.2h29.593C35.989,1.976,36.977,2.964,36.977,4.176L36.977,4.176z
	 M36.977,16.186v5.588c0,1.21-0.987,2.199-2.199,2.199H5.185c-1.212,0-2.2-0.988-2.2-2.199v-5.588c0-1.212,0.988-2.2,2.2-2.2h29.593
	C35.989,13.985,36.977,14.974,36.977,16.186L36.977,16.186z M36.977,28.172v5.596c0,1.212-0.987,2.2-2.199,2.2H5.185
	c-1.212,0-2.2-0.988-2.2-2.2v-5.596c0-1.212,0.988-2.2,2.2-2.2h29.593C35.989,25.973,36.977,26.96,36.977,28.172z"/>
</svg>
